# xmcd
#
# Track frame offsets: 
#        150
#        3320
#        17916
#        28161
#        40155
#        65060
#        75827
#        91100
#        119089
#        137812
#        149008
#        163882
#        187394
#        199511
#        224787
#        238859
#        249750
#        267060
#        285963
#        295649
#        308015
#        318809
#
# Disc length: 4445 seconds
#
# Revision: 5
# Processed by: cddbd v1.5.2PL0 Copyright (c) Steve Scherf et al.
# Submitted via: ExactAudioCopy v0.99pb5
#
DISCID=40115b16
DTITLE=Various Artist - Tarantino
DYEAR=2001
DGENRE=Soundtrack
TTITLE0=Cheech Marin - Chet's Speech (dialogue)
TTITLE1=George Baker - Little Green Bad
TTITLE2=Dick Dale and His Del-Tones with Pumpkin and Honey Bunny dialogue 
TTITLE2=intro - Misirlou
TTITLE3=Chuck Berry with Jack Rabbit Slims Twist Contest dialogue intr
TTITLE3=o - You Never Can Tell
TTITLE4=Combustible Edison - Vertigogo
TTITLE5=The Statler Brothers - Flowers on the Wall
TTITLE6=Stealers Wheel - Stuck in the Middle with You
TTITLE7=Jimmie Vaughan - Dengue Woman Blues
TTITLE8=Tito and Tarantula - After Dark
TTITLE9=The Centurions with Zed's Dead, Baby dialogue intro - Bullwink
TTITLE9=le Part II
TTITLE10=The Lively Ones - Surf Rider
TTITLE11=Tito and Tarantula - Angry Cockroaches (Cucarachas Enojadas)
TTITLE12=The Leftovers - Torquay
TTITLE13=Tito and Tarantula - Strange Face of Love
TTITLE14=Urge Overkill - Girl, You'll be a Woman Soon
TTITLE15=The Tornadoes - Bustin' Surfboards
TTITLE16=Leonard Cohen with Ezekiel 25:17 dialogue intro - The Future
TTITLE17=Stevie Ray Vaughan and Double Trouble - Mary Had a Little Lamb
TTITLE18=Surfaris - Wipeout
TTITLE19=John Travolta and Olivia Newton-John - You're the One That I Wa
TTITLE19=nt
TTITLE20=Runaway - Del Shannon
TTITLE21=Al Green - Let's Stay Together
EXTD=
EXTT0=
EXTT1=
EXTT2=
EXTT3=
EXTT4=
EXTT5=
EXTT6=
EXTT7=
EXTT8=
EXTT9=
EXTT10=
EXTT11=
EXTT12=
EXTT13=
EXTT14=
EXTT15=
EXTT16=
EXTT17=
EXTT18=
EXTT19=
EXTT20=
EXTT21=
PLAYORDER=
